<svg width="50" height="50" viewBox="0 0 50 50" fill="none" xmlns="http://www.w3.org/2000/svg">
<path d="M27.0834 45.8333H10.4167C6.25008 45.8333 4.16675 43.75 4.16675 39.5833V22.9167C4.16675 18.75 6.25008 16.6667 10.4167 16.6667H20.8334V39.5833C20.8334 43.75 22.9167 45.8333 27.0834 45.8333Z" stroke="#E9E9E9" stroke-width="1.5" stroke-miterlimit="10" stroke-linecap="round" stroke-linejoin="round"/>
<path d="M21.0626 8.33334C20.8959 8.95834 20.8334 9.64584 20.8334 10.4167V16.6667H10.4167V12.5C10.4167 10.2083 12.2917 8.33334 14.5834 8.33334H21.0626Z" stroke="#E9E9E9" stroke-width="1.5" stroke-miterlimit="10" stroke-linecap="round" stroke-linejoin="round"/>
<path d="M29.1667 16.6667V27.0833" stroke="#E9E9E9" stroke-width="1.5" stroke-miterlimit="10" stroke-linecap="round" stroke-linejoin="round"/>
<path d="M37.5 16.6667V27.0833" stroke="#E9E9E9" stroke-width="1.5" stroke-miterlimit="10" stroke-linecap="round" stroke-linejoin="round"/>
<path d="M35.4167 35.4167H31.2501C30.1042 35.4167 29.1667 36.3542 29.1667 37.5V45.8333H37.5001V37.5C37.5001 36.3542 36.5626 35.4167 35.4167 35.4167Z" stroke="#E9E9E9" stroke-width="1.5" stroke-miterlimit="10" stroke-linecap="round" stroke-linejoin="round"/>
<path d="M12.5 27.0833V35.4167" stroke="#E9E9E9" stroke-width="1.5" stroke-miterlimit="10" stroke-linecap="round" stroke-linejoin="round"/>
<path d="M20.8333 39.5833V10.4167C20.8333 6.24999 22.9166 4.16666 27.0833 4.16666H39.5833C43.7499 4.16666 45.8333 6.24999 45.8333 10.4167V39.5833C45.8333 43.75 43.7499 45.8333 39.5833 45.8333H27.0833C22.9166 45.8333 20.8333 43.75 20.8333 39.5833Z" stroke="#E9E9E9" stroke-width="1.5" stroke-miterlimit="10" stroke-linecap="round" stroke-linejoin="round"/>
</svg>
