<svg width="40" height="40" viewBox="0 0 40 40" fill="none" xmlns="http://www.w3.org/2000/svg">
<g clip-path="url(#clip0_2417_29544)">
<path d="M14.9998 1.66675V6.66675M24.9998 1.66675V6.66675M14.9998 33.3334V38.3334M24.9998 33.3334V38.3334M33.3332 15.0001H38.3332M33.3332 23.3334H38.3332M1.6665 15.0001H6.6665M1.6665 23.3334H6.6665M9.99984 6.66675H29.9998C31.8408 6.66675 33.3332 8.15913 33.3332 10.0001V30.0001C33.3332 31.841 31.8408 33.3334 29.9998 33.3334H9.99984C8.15889 33.3334 6.6665 31.841 6.6665 30.0001V10.0001C6.6665 8.15913 8.15889 6.66675 9.99984 6.66675ZM14.9998 15.0001H24.9998V25.0001H14.9998V15.0001Z" stroke="#00C3D0" stroke-width="2" stroke-linecap="round" stroke-linejoin="round"/>
</g>
<defs>
<clipPath id="clip0_2417_29544">
<rect width="40" height="40" fill="white"/>
</clipPath>
</defs>
</svg>
