<svg width="40" height="40" viewBox="0 0 40 40" fill="none" xmlns="http://www.w3.org/2000/svg">
<path d="M36.6666 19.4166H27C24.45 19.4166 22.7 17.4833 22.7 15.1166V9.74988C22.7 7.38321 24.45 5.44995 27 5.44995H32.3666C34.7333 5.44995 36.6666 7.38321 36.6666 9.74988V19.4166Z" stroke="#17346F" stroke-width="1.5" stroke-linecap="round" stroke-linejoin="round"/>
<path d="M36.6667 19.4165C36.6667 29.4998 34.7834 31.1664 29.1167 34.5331" stroke="#17346F" stroke-width="1.5" stroke-linecap="round" stroke-linejoin="round"/>
<path d="M17.2833 19.4166H7.61665C5.06665 19.4166 3.31665 17.4833 3.31665 15.1166V9.74988C3.31665 7.38321 5.06665 5.44995 7.61665 5.44995H13C15.3667 5.44995 17.3 7.38321 17.3 9.74988V19.4166" stroke="#17346F" stroke-width="1.5" stroke-linecap="round" stroke-linejoin="round"/>
<path d="M17.2834 19.4165C17.2834 29.4998 15.4001 31.1664 9.7334 34.5331" stroke="#17346F" stroke-width="1.5" stroke-linecap="round" stroke-linejoin="round"/>
</svg>
