<svg width="116" height="20" viewBox="0 0 116 20" fill="none" xmlns="http://www.w3.org/2000/svg">
<path d="M7.15611 6.86369L9.32111 2.50369C9.38413 2.37751 9.48106 2.27138 9.60102 2.19721C9.72098 2.12303 9.85924 2.08374 10.0003 2.08374C10.1413 2.08374 10.2796 2.12303 10.3995 2.19721C10.5195 2.27138 10.6164 2.37751 10.6794 2.50369L12.8444 6.86369L17.6844 7.56703C17.8241 7.58638 17.9554 7.6446 18.0635 7.73503C18.1716 7.82547 18.2521 7.94447 18.2958 8.07846C18.3395 8.21246 18.3447 8.35604 18.3107 8.49282C18.2767 8.6296 18.205 8.75407 18.1036 8.85203L14.6019 12.2437L15.4286 17.0354C15.5344 17.6504 14.8844 18.1187 14.3286 17.8287L10.0003 15.5654L5.67111 17.8287C5.11611 18.1195 4.46611 17.6504 4.57195 17.0345L5.39861 12.2429L1.89695 8.85119C1.7961 8.75317 1.72478 8.62882 1.69108 8.49229C1.65739 8.35575 1.66267 8.2125 1.70634 8.07881C1.75 7.94513 1.83029 7.82638 1.93809 7.73605C2.04588 7.64573 2.17685 7.58746 2.31611 7.56786L7.15611 6.86369Z" fill="#FA7319" stroke="#FA7319" stroke-width="1.5" stroke-linecap="round" stroke-linejoin="round"/>
<path d="M31.1561 6.86369L33.3211 2.50369C33.3841 2.37751 33.4811 2.27138 33.601 2.19721C33.721 2.12303 33.8592 2.08374 34.0003 2.08374C34.1413 2.08374 34.2796 2.12303 34.3995 2.19721C34.5195 2.27138 34.6164 2.37751 34.6794 2.50369L36.8444 6.86369L41.6844 7.56703C41.8241 7.58638 41.9554 7.6446 42.0635 7.73503C42.1716 7.82547 42.2521 7.94447 42.2958 8.07846C42.3395 8.21246 42.3447 8.35604 42.3107 8.49282C42.2767 8.6296 42.205 8.75407 42.1036 8.85203L38.6019 12.2437L39.4286 17.0354C39.5344 17.6504 38.8844 18.1187 38.3286 17.8287L34.0003 15.5654L29.6711 17.8287C29.1161 18.1195 28.4661 17.6504 28.5719 17.0345L29.3986 12.2429L25.8969 8.85119C25.7961 8.75317 25.7248 8.62882 25.6911 8.49229C25.6574 8.35575 25.6627 8.2125 25.7063 8.07881C25.75 7.94513 25.8303 7.82638 25.9381 7.73605C26.0459 7.64573 26.1769 7.58746 26.3161 7.56786L31.1561 6.86369Z" fill="#FA7319" stroke="#FA7319" stroke-width="1.5" stroke-linecap="round" stroke-linejoin="round"/>
<path d="M55.1561 6.86369L57.3211 2.50369C57.3841 2.37751 57.4811 2.27138 57.601 2.19721C57.721 2.12303 57.8592 2.08374 58.0003 2.08374C58.1413 2.08374 58.2796 2.12303 58.3995 2.19721C58.5195 2.27138 58.6164 2.37751 58.6794 2.50369L60.8444 6.86369L65.6844 7.56703C65.8241 7.58638 65.9554 7.6446 66.0635 7.73503C66.1716 7.82547 66.2521 7.94447 66.2958 8.07846C66.3395 8.21246 66.3447 8.35604 66.3107 8.49282C66.2767 8.6296 66.205 8.75407 66.1036 8.85203L62.6019 12.2437L63.4286 17.0354C63.5344 17.6504 62.8844 18.1187 62.3286 17.8287L58.0003 15.5654L53.6711 17.8287C53.1161 18.1195 52.4661 17.6504 52.5719 17.0345L53.3986 12.2429L49.8969 8.85119C49.7961 8.75317 49.7248 8.62882 49.6911 8.49229C49.6574 8.35575 49.6627 8.2125 49.7063 8.07881C49.75 7.94513 49.8303 7.82638 49.9381 7.73605C50.0459 7.64573 50.1769 7.58746 50.3161 7.56786L55.1561 6.86369Z" fill="#FA7319" stroke="#FA7319" stroke-width="1.5" stroke-linecap="round" stroke-linejoin="round"/>
<path d="M79.1561 6.86369L81.3211 2.50369C81.3841 2.37751 81.4811 2.27138 81.601 2.19721C81.721 2.12303 81.8592 2.08374 82.0003 2.08374C82.1413 2.08374 82.2796 2.12303 82.3995 2.19721C82.5195 2.27138 82.6164 2.37751 82.6794 2.50369L84.8444 6.86369L89.6844 7.56703C89.8241 7.58638 89.9554 7.6446 90.0635 7.73503C90.1716 7.82547 90.2521 7.94447 90.2958 8.07846C90.3395 8.21246 90.3447 8.35604 90.3107 8.49282C90.2767 8.6296 90.205 8.75407 90.1036 8.85203L86.6019 12.2437L87.4286 17.0354C87.5344 17.6504 86.8844 18.1187 86.3286 17.8287L82.0003 15.5654L77.6711 17.8287C77.1161 18.1195 76.4661 17.6504 76.5719 17.0345L77.3986 12.2429L73.8969 8.85119C73.7961 8.75317 73.7248 8.62882 73.6911 8.49229C73.6574 8.35575 73.6627 8.2125 73.7063 8.07881C73.75 7.94513 73.8303 7.82638 73.9381 7.73605C74.0459 7.64573 74.1769 7.58746 74.3161 7.56786L79.1561 6.86369Z" fill="#FA7319" stroke="#FA7319" stroke-width="1.5" stroke-linecap="round" stroke-linejoin="round"/>
<path d="M103.156 6.86369L105.321 2.50369C105.384 2.37751 105.481 2.27138 105.601 2.19721C105.721 2.12303 105.859 2.08374 106 2.08374C106.141 2.08374 106.28 2.12303 106.4 2.19721C106.519 2.27138 106.616 2.37751 106.679 2.50369L108.844 6.86369L113.684 7.56703C113.824 7.58638 113.955 7.6446 114.064 7.73503C114.172 7.82547 114.252 7.94447 114.296 8.07846C114.34 8.21246 114.345 8.35604 114.311 8.49282C114.277 8.6296 114.205 8.75407 114.104 8.85203L110.602 12.2437L111.429 17.0354C111.534 17.6504 110.884 18.1187 110.329 17.8287L106 15.5654L101.671 17.8287C101.116 18.1195 100.466 17.6504 100.572 17.0345L101.399 12.2429L97.8969 8.85119C97.7961 8.75317 97.7248 8.62882 97.6911 8.49229C97.6574 8.35575 97.6627 8.2125 97.7063 8.07881C97.75 7.94513 97.8303 7.82638 97.9381 7.73605C98.0459 7.64573 98.1769 7.58746 98.3161 7.56786L103.156 6.86369Z" fill="#FA7319" stroke="#FA7319" stroke-width="1.5" stroke-linecap="round" stroke-linejoin="round"/>
</svg>
