<svg width="50" height="50" viewBox="0 0 50 50" fill="none" xmlns="http://www.w3.org/2000/svg">
<path d="M12.5001 12.5H12.5209M12.5001 37.5H12.5209M8.33342 4.16663H41.6668C43.9679 4.16663 45.8334 6.03211 45.8334 8.33329V16.6666C45.8334 18.9678 43.9679 20.8333 41.6668 20.8333H8.33342C6.03223 20.8333 4.16675 18.9678 4.16675 16.6666V8.33329C4.16675 6.03211 6.03223 4.16663 8.33342 4.16663ZM8.33342 29.1666H41.6668C43.9679 29.1666 45.8334 31.0321 45.8334 33.3333V41.6666C45.8334 43.9678 43.9679 45.8333 41.6668 45.8333H8.33342C6.03223 45.8333 4.16675 43.9678 4.16675 41.6666V33.3333C4.16675 31.0321 6.03223 29.1666 8.33342 29.1666Z" stroke="#9661F1" stroke-width="2" stroke-linecap="round" stroke-linejoin="round"/>
</svg>
