<svg width="40" height="40" viewBox="0 0 40 40" fill="none" xmlns="http://www.w3.org/2000/svg">
<path d="M31.9002 32.5001C34.8502 29.5001 36.6668 25.3667 36.6668 20.8334C36.6668 11.6334 29.2002 4.16675 20.0002 4.16675C10.8002 4.16675 3.3335 11.6334 3.3335 20.8334C3.3335 25.3667 5.13349 29.4667 8.06682 32.4834" stroke="#00C3D0" stroke-width="1.5" stroke-miterlimit="10" stroke-linecap="round" stroke-linejoin="round"/>
<path d="M20 35.8333C23.1112 35.8333 25.6334 33.3112 25.6334 30.2C25.6334 27.0888 23.1112 24.5667 20 24.5667C16.8888 24.5667 14.3667 27.0888 14.3667 30.2C14.3667 33.3112 16.8888 35.8333 20 35.8333Z" stroke="#00C3D0" stroke-width="1.5" stroke-miterlimit="10" stroke-linecap="round" stroke-linejoin="round"/>
<path d="M25.4165 20H26.6665C28.0332 20 29.1665 18.8833 29.1665 17.5C29.1665 16.1333 28.0332 15 26.6665 15C25.2998 15 24.1665 16.1167 24.1665 17.5V18.75C24.1665 19.4333 24.7332 20 25.4165 20Z" stroke="#00C3D0" stroke-width="1.5" stroke-miterlimit="10" stroke-linecap="round" stroke-linejoin="round"/>
</svg>
