<svg width="50" height="50" viewBox="0 0 50 50" fill="none" xmlns="http://www.w3.org/2000/svg">
<path d="M35.4166 43.75V39.5833C35.4166 37.3732 34.5386 35.2536 32.9758 33.6908C31.413 32.128 29.2934 31.25 27.0833 31.25H10.4166C8.20645 31.25 6.08683 32.128 4.52403 33.6908C2.96123 35.2536 2.08325 37.3732 2.08325 39.5833V43.75M47.9166 43.75V39.5833C47.9152 37.7369 47.3007 35.9433 46.1694 34.484C45.0382 33.0247 43.4544 31.9824 41.6666 31.5208M33.3333 6.52083C35.1258 6.97979 36.7146 8.02229 37.8492 9.48398C38.9838 10.9457 39.5996 12.7434 39.5996 14.5937C39.5996 16.4441 38.9838 18.2418 37.8492 19.7035C36.7146 21.1652 35.1258 22.2077 33.3333 22.6667M27.0833 14.5833C27.0833 19.1857 23.3523 22.9167 18.7499 22.9167C14.1475 22.9167 10.4166 19.1857 10.4166 14.5833C10.4166 9.98096 14.1475 6.25 18.7499 6.25C23.3523 6.25 27.0833 9.98096 27.0833 14.5833Z" stroke="#E9E9E9" stroke-width="2" stroke-linecap="round" stroke-linejoin="round"/>
</svg>
